<?xml version="1.0" encoding="UTF-8" standalone="no"?>
<!-- Created with Inkscape (http://www.inkscape.org/) -->

<svg
   width="83.636497mm"
   height="83.573746mm"
   viewBox="0 0 83.636497 83.573746"
   version="1.1"
   id="svg793"
   xml:space="preserve"
   sodipodi:docname="g52453.svg"
   inkscape:version="1.2.1 (9c6d41e, 2022-07-14)"
   xmlns:inkscape="http://www.inkscape.org/namespaces/inkscape"
   xmlns:sodipodi="http://sodipodi.sourceforge.net/DTD/sodipodi-0.dtd"
   xmlns="http://www.w3.org/2000/svg"
   xmlns:svg="http://www.w3.org/2000/svg"><sodipodi:namedview
     id="namedview53964"
     pagecolor="#505050"
     bordercolor="#eeeeee"
     borderopacity="1"
     inkscape:showpageshadow="0"
     inkscape:pageopacity="0"
     inkscape:pagecheckerboard="0"
     inkscape:deskcolor="#505050"
     inkscape:document-units="mm"
     showgrid="false"
     inkscape:zoom="1.8409014"
     inkscape:cx="101.03746"
     inkscape:cy="252.05044"
     inkscape:window-width="1309"
     inkscape:window-height="456"
     inkscape:window-x="0"
     inkscape:window-y="25"
     inkscape:window-maximized="0"
     inkscape:current-layer="g52453" /><defs
     id="defs790" /><g
     id="layer4"
     transform="translate(-31.27652,-134.22773)"><g
       id="g52453"><path
         id="path21378"
         style="color:#000000;display:inline;opacity:1;fill:#5599FF;fill-opacity:1;stroke:none;stroke-width:0.999997;stroke-linecap:round"
         d="m 87.267806,134.22879 c -4.576182,0.0381 -9.393116,1.3536 -13.633791,3.80545 l -0.0078,-0.014 c -13.01331,7.66995 -17.35726,24.46257 -9.695016,37.4804 1.05597,1.79405 2.286075,3.42253 3.655074,4.87877 l -5.067908,4.93561 c -0.903914,-0.68722 -1.818219,-1.05985 -2.736784,-1.08417 -0.08487,-0.002 -0.169819,-0.002 -0.254764,0.002 v -5.1e-4 c -1.359128,0.0591 -2.492174,0.82658 -3.525366,1.81281 l -0.0083,0.005 -0.0062,0.008 -22.697323,22.43533 -0.0057,0.008 c 0,0 -0.929968,0.93459 -1.527555,2.26962 -0.298792,0.66751 -0.530539,1.46234 -0.470255,2.33372 0.06028,0.87137 0.458199,1.8003 1.25367,2.54092 1.292278,1.20316 2.376319,2.0903 3.787366,2.15233 1.411047,0.062 2.680418,-0.72985 4.300513,-2.12494 1.712867,-1.47498 7.418534,-7.21976 12.833842,-12.71085 5.415305,-5.49114 10.439672,-10.64638 10.439672,-10.64638 l 0.0036,-0.001 0.0021,-0.004 c 0,0 0.699137,-0.71689 0.984436,-1.84382 0.25583,-1.01053 0.113762,-2.425 -0.935343,-3.76049 l 5.052921,-4.92114 c 8.637532,7.92804 21.772197,9.67973 32.398025,3.43389 13.02235,-7.65453 17.38525,-24.44367 9.73842,-37.47057 -4.77925,-8.14182 -13.127172,-12.90358 -21.898404,-13.46481 -0.657852,-0.0421 -1.317941,-0.0608 -1.979209,-0.0553 z m 0.528653,2.03088 h 5.16e-4 c 8.618748,0.10861 16.978915,4.54962 21.641575,12.49278 7.10497,12.10382 3.06454,27.64593 -9.03511,34.75808 -12.099651,7.11215 -27.644466,3.0815 -34.763769,-9.01392 -7.119309,-12.09544 -3.098996,-27.64298 8.992215,-34.76945 l -0.0042,-0.006 c 4.137366,-2.40233 8.6878,-3.51826 13.168726,-3.46179 z m -0.203609,3.69073 c -4.673964,-0.002 -9.367034,1.48494 -13.31443,4.51342 -0.44247,0.33849 -0.526485,0.97171 -0.187585,1.41387 0.339119,0.44179 0.972257,0.52487 1.413867,0.18552 7.919532,-6.07594 19.10803,-5.33034 26.150338,1.74046 7.04234,7.07079 7.72418,18.24171 1.59577,26.1152 -0.3425,0.43993 -0.26285,1.07433 0.17777,1.41594 0.43967,0.34143 1.07288,0.26184 1.41438,-0.17777 6.742,-8.66181 5.98695,-20.99923 -1.7601,-28.77757 -3.873481,-3.88917 -8.896865,-6.03837 -14.041002,-6.38049 -0.482257,-0.0321 -0.965485,-0.0483 -1.449008,-0.0486 z m -16.530771,8.16178 c -0.32214,-0.008 -0.628657,0.13859 -0.824756,0.39429 -6.646964,8.67383 -5.841183,20.94263 1.88464,28.6737 7.725852,7.73105 20.008062,8.56348 28.708847,1.94562 0.44281,-0.33713 0.52863,-0.96934 0.19171,-1.41232 -0.33665,-0.44333 -0.96894,-0.52985 -1.412314,-0.19327 -7.909564,6.01606 -19.037501,5.26188 -26.060424,-1.76578 -7.022893,-7.02764 -7.754937,-18.13692 -1.713074,-26.02115 0.33924,-0.44224 0.255215,-1.07586 -0.187585,-1.41439 -0.16898,-0.12909 -0.374465,-0.20144 -0.587044,-0.2067 z m 12.555822,5.82806 c -0.317802,2.2e-4 -0.634539,0.12134 -0.873846,0.36122 l -1.748216,1.74667 -1.747696,-1.74822 h -0.0021 c -0.478769,-0.47844 -1.269445,-0.47844 -1.748213,0 v 0.002 c -0.47843,0.47877 -0.47844,1.26893 0,1.74769 l 1.748213,1.74822 -1.748213,1.74925 c -0.47844,0.47878 -0.47844,1.26892 0,1.74769 v 0.002 c 0.478778,0.47844 1.269444,0.47845 1.748213,0 v -0.002 l 1.749247,-1.74769 1.74822,1.74769 c 0.478626,0.47976 1.270004,0.48072 1.749246,0.002 0.478821,-0.47892 0.478821,-1.27052 0,-1.74924 v -0.002 l -1.748215,-1.7477 1.746661,-1.74822 c 0.479752,-0.47862 0.48073,-1.27 0.002,-1.74924 -0.239622,-0.23957 -0.557612,-0.35987 -0.875401,-0.35967 z m 13.176971,0.0822 c -0.317795,2.1e-4 -0.634533,0.12134 -0.873846,0.36122 l -1.747699,1.74666 -1.748208,-1.74821 h -0.0013 c -0.478773,-0.47844 -1.268932,-0.47844 -1.747699,0 v 10e-4 c -0.478425,0.47877 -0.478432,1.26945 0,1.74821 l 1.747699,1.7477 -1.747699,1.74925 c -0.478432,0.47877 -0.478438,1.26944 0,1.74821 v 0.001 c 0.478774,0.47844 1.268926,0.47844 1.747699,0 v -0.001 l 1.749763,-1.74821 1.747699,1.74821 c 0.478626,0.47975 1.270004,0.48014 1.749246,0.001 0.478827,-0.47892 0.478827,-1.27053 0,-1.74924 v -0.001 l -1.747699,-1.74822 1.746667,-1.7477 c 0.479752,-0.47862 0.480141,-1.27 0.0013,-1.74924 -0.239621,-0.23956 -0.557604,-0.36039 -0.8754,-0.36019 z m -9.274884,13.11858 v 5.1e-4 c -2.54587,0.0111 -5.090928,0.97722 -7.073986,2.9099 -0.434439,0.42422 -0.44303,1.1202 -0.01912,1.55495 0.424149,0.4341 1.119738,0.44268 1.554427,0.0191 3.256336,-3.17363 8.259598,-3.07395 11.398783,0.22893 0.418652,0.43967 1.114358,0.45696 1.554426,0.0388 0.439821,-0.41851 0.457365,-1.11422 0.03925,-1.55442 -1.971297,-2.07408 -4.57986,-3.14342 -7.207307,-3.19567 -0.0821,-0.002 -0.16438,-0.002 -0.2465,-0.002 z m -27.785383,19.08772 v 5.2e-4 c 0.610159,0.0137 1.352491,0.33788 2.385384,1.40766 1.01356,1.04977 0.979716,1.75642 0.83199,2.33991 -0.147724,0.58352 -0.488342,0.9493 -0.488342,0.9493 -0.0017,0.002 -1.149493,1.17681 -1.977657,2.02468 l -4.266406,-4.30929 1.162203,-1.14877 c 0.872101,-0.83247 1.599649,-1.23443 2.232422,-1.26194 0.03955,-0.002 0.07973,-0.002 0.120406,-0.002 z m -4.93665,3.81838 4.290178,4.33358 c -1.911889,1.95345 -4.423149,4.51454 -7.050216,7.17837 -5.410223,5.48599 -11.310104,11.3895 -12.714986,12.59923 -1.497661,1.28967 -2.348633,1.66738 -2.907833,1.6428 -0.559199,-0.0246 -1.294813,-0.4818 -2.514058,-1.61696 -0.460293,-0.42855 -0.591608,-0.7974 -0.620635,-1.21698 -0.02903,-0.41958 0.09075,-0.90801 0.300757,-1.37718 0.418563,-0.93508 1.12577,-1.68204 1.130681,-1.68723 z" /></g></g></svg>
